<svg aria-hidden="true" style="position: absolute; width: 0; height: 0; overflow: hidden;" version="1.1" xmlns="http://www.w3.org/2000/svg" xmlns:xlink="http://www.w3.org/1999/xlink">
<defs>
<symbol id="send-footer" viewBox="0 0 32 32">
<path d="M32 0l-32 18 10.213 3.787 15.787-14.787-12 16.173v8.827l5.733-6.693 7.267 2.693 5-28z"></path>
</symbol>
<symbol id="close-modal" viewBox="0 0 32 32">
<path d="M32 3.2l-3.229-3.2-12.771 12.771-12.8-12.771-3.2 3.2 12.771 12.8-12.771 12.771 3.2 3.229 12.8-12.8 12.771 12.8 3.229-3.229-12.8-12.771 12.8-12.8z"></path>
</symbol>
<symbol id="name-modal" viewBox="0 0 32 32">
<path d="M16 16c4.4 0 8-3.6 8-8 0-4.427-3.6-8-8-8-4.427 0-8 3.573-8 8 0 4.4 3.573 8 8 8zM16 20c-5.36 0-16 2.667-16 8v2c0 1.093 0.88 2 2 2h28c1.093 0 2-0.907 2-2v-2c0-5.333-10.667-8-16-8z"></path>
</symbol>
<symbol id="phone-modal" viewBox="0 0 32 32">
<path d="M28.849 21.809l-4.529-0.517c-1.083-0.123-2.142 0.246-2.905 1.009l-3.298 3.274c-5.068-2.62-9.097-6.649-11.647-11.568l-0.070-0.149 3.274-3.298c0.788-0.763 1.157-1.846 1.034-2.929l-0.517-4.48c-0.205-1.781-1.704-3.151-3.523-3.151-0.008 0-0.015 0-0.023 0h-3.1c-1.994 0-3.668 1.674-3.545 3.668 0.935 15.212 13.095 27.372 28.308 28.308 1.994 0.123 3.692-1.551 3.692-3.545v-3.102c0-1.797-1.354-3.298-3.151-3.52z"></path>
</symbol>
<symbol id="envelope-modal" viewBox="0 0 40 32">
<path d="M36 0h-32c-2.213 0-4 1.787-4 4v24c0 2.187 1.787 4 4 4h32c2.187 0 4-1.813 4-4v-24c0-2.213-1.813-4-4-4zM35.2 8.48l-14.16 8.853c-0.299 0.188-0.663 0.3-1.053 0.3s-0.754-0.112-1.062-0.305l0.008 0.005-14.133-8.853c-0.483-0.303-0.8-0.832-0.8-1.436 0-0.002 0-0.003 0-0.005v0c0-1.333 1.44-2.133 2.587-1.44l13.413 8.4 13.387-8.4c1.147-0.693 2.613 0.107 2.613 1.44 0 0.587-0.32 1.12-0.8 1.44z"></path>
</symbol>
<symbol id="smartphone" viewBox="0 0 20 32">
<path d="M17 0h-14c-1.66 0-3 1.34-3 3v26c0 1.64 1.34 3 3 3h14c1.64 0 3-1.36 3-3v-26c0-1.66-1.36-3-3-3zM3 2h14c0.54 0 1 0.44 1 1v21h-16v-21c0-0.56 0.44-1 1-1zM17 30h-14c-0.56 0-1-0.46-1-1v-3h16v3c0 0.54-0.46 1-1 1z"></path>
<path d="M4.7 27.46c0.38 0.38 0.38 0.96 0 1.32-0.4 0.38-1.020 0.38-1.42 0-0.38-0.36-0.38-0.94 0-1.32 0.4-0.36 1.020-0.36 1.42 0z"></path>
</symbol>
<symbol id="envelope" viewBox="0 0 43 32">
<path d="M38.667 0h-34.667c-2.213 0-4 1.787-4 4v24c0 2.187 1.787 4 4 4h34.667c2.187 0 4-1.813 4-4v-24c0-2.213-1.813-4-4-4zM38.667 2.667c0.16 0 0.347 0.027 0.507 0.080l-17.84 15.467-17.867-15.467c0.16-0.053 0.347-0.080 0.533-0.080h34.667zM38.667 29.333h-34.667c-0.747 0-1.333-0.613-1.333-1.333v-22.427l17.787 15.413c0.24 0.213 0.56 0.347 0.88 0.347 0.293 0 0.613-0.133 0.853-0.347l17.813-15.413v22.427c0 0.72-0.613 1.333-1.333 1.333z"></path>
</symbol>
<symbol id="company-tagline" viewBox="0 0 68 32">
<path d="M34.546 15.036c-0.321-0.43-0.481-0.94-0.437-1.45v-2.105c0-0.641 0.146-1.129 0.437-1.464s0.794-0.503 1.501-0.503c0.67 0 1.144 0.146 1.428 0.43 0.306 0.364 0.452 0.809 0.415 1.253v0.495h-1.195v-0.495c0.007-0.168-0.007-0.328-0.036-0.495-0.015-0.109-0.073-0.211-0.168-0.284-0.124-0.087-0.277-0.124-0.43-0.117-0.168-0.007-0.328 0.029-0.459 0.117-0.102 0.087-0.175 0.204-0.197 0.321-0.036 0.175-0.051 0.35-0.051 0.525v2.55c-0.015 0.24 0.036 0.488 0.153 0.714 0.066 0.073 0.146 0.131 0.24 0.175 0.095 0.036 0.204 0.051 0.313 0.036 0.153 0.015 0.299-0.029 0.423-0.117 0.095-0.080 0.16-0.189 0.175-0.306 0.029-0.168 0.044-0.342 0.036-0.51v-0.517h1.195v0.474c0.036 0.466-0.109 0.925-0.408 1.319-0.277 0.313-0.743 0.466-1.435 0.466-0.685 0-1.209-0.168-1.501-0.51z"></path>
<path d="M39.521 15.058c-0.299-0.328-0.452-0.809-0.452-1.435v-2.207c0-0.627 0.153-1.1 0.452-1.421 0.306-0.321 0.809-0.481 1.515-0.481s1.209 0.16 1.508 0.481c0.299 0.321 0.459 0.794 0.459 1.421v2.207c0 0.619-0.16 1.1-0.466 1.428s-0.801 0.495-1.501 0.495c-0.692 0-1.209-0.168-1.515-0.488zM41.598 14.526c0.102-0.204 0.153-0.43 0.138-0.656v-2.703c0.015-0.219-0.029-0.444-0.138-0.641-0.058-0.080-0.146-0.138-0.248-0.175-0.095-0.044-0.204-0.051-0.313-0.044-0.109-0.007-0.219 0-0.313 0.044-0.102 0.036-0.189 0.095-0.248 0.175-0.109 0.197-0.16 0.415-0.146 0.641v2.717c-0.015 0.226 0.036 0.452 0.146 0.656 0.073 0.066 0.153 0.124 0.255 0.16 0.095 0.036 0.197 0.058 0.306 0.058 0.102 0 0.211-0.022 0.306-0.058s0.182-0.095 0.255-0.16v-0.015z"></path>
<path d="M44.439 9.58h1.289l0.962 4.080 0.991-4.080h1.253l0.124 5.886h-0.925l-0.095-4.087-0.954 4.087h-0.743l-0.991-4.101-0.095 4.101h-0.932l0.117-5.886z"></path>
<path d="M50.507 9.58h2.003c1.151 0 1.734 0.561 1.734 1.676 0 1.064-0.612 1.595-1.829 1.595h-0.685v2.615h-1.231l0.007-5.886zM52.219 12.093c0.117 0.015 0.24 0.007 0.364-0.029 0.117-0.029 0.226-0.080 0.313-0.153 0.146-0.197 0.204-0.43 0.175-0.663 0.007-0.182-0.007-0.364-0.058-0.539-0.015-0.058-0.044-0.109-0.087-0.16-0.044-0.044-0.095-0.087-0.16-0.117-0.168-0.073-0.357-0.102-0.546-0.095h-0.481v1.756h0.481z"></path>
<path d="M56.022 9.58h1.333l1.362 5.886h-1.151l-0.27-1.355h-1.187l-0.277 1.355h-1.173l1.362-5.886zM57.159 13.426l-0.459-2.47-0.466 2.47h0.925z"></path>
<path d="M59.818 9.58h0.867l1.661 3.358v-3.358h1.027v5.886h-0.823l-1.668-3.504v3.504h-1.064v-5.886z"></path>
<path d="M65.777 13.222l-1.377-3.635h1.158l0.845 2.338 0.787-2.338h1.136l-1.362 3.635v2.244h-1.187v-2.244z"></path>
<path d="M36.454 18.038v0.306h-1.005v2.39h-0.423v-2.389h-1.020v-0.306h2.448z"></path>
<path d="M39.623 20.733h-0.328c-0.036 0.007-0.066-0.007-0.095-0.022-0.022-0.015-0.044-0.036-0.051-0.066l-0.291-0.641h-1.399l-0.299 0.641c-0.007 0.029-0.022 0.058-0.044 0.073-0.022 0.022-0.058 0.029-0.087 0.029h-0.328l1.238-2.695h0.43l1.253 2.681zM37.569 19.735h1.173l-0.495-1.1c-0.036-0.080-0.066-0.168-0.095-0.255-0.015 0.051-0.029 0.102-0.044 0.146l-0.044 0.109-0.495 1.1z"></path>
<path d="M41.758 20.471c0.073 0.007 0.153 0.007 0.233 0 0.066-0.007 0.131-0.015 0.197-0.029 0.058-0.015 0.117-0.029 0.175-0.051s0.109-0.044 0.168-0.066v-0.605h-0.495c-0.015 0-0.022-0.007-0.036-0.007-0.015-0.007-0.022-0.007-0.029-0.015s-0.015-0.015-0.022-0.022c0-0.015-0.007-0.022-0.007-0.029v-0.211h0.962v1.034c-0.080 0.051-0.16 0.095-0.248 0.131s-0.175 0.066-0.27 0.095c-0.102 0.022-0.211 0.044-0.313 0.051-0.117 0.015-0.24 0.022-0.357 0.022-0.219 0-0.43-0.036-0.627-0.102-0.189-0.066-0.357-0.16-0.495-0.284s-0.248-0.27-0.321-0.43c-0.080-0.175-0.117-0.364-0.117-0.554 0-0.197 0.036-0.386 0.117-0.568 0.073-0.16 0.175-0.306 0.321-0.43 0.138-0.117 0.306-0.211 0.495-0.277 0.211-0.066 0.437-0.102 0.663-0.102 0.109 0 0.226 0.007 0.342 0.022 0.102 0.015 0.197 0.044 0.291 0.073 0.087 0.029 0.175 0.066 0.248 0.109 0.080 0.036 0.153 0.087 0.219 0.138l-0.124 0.168c-0.007 0.015-0.022 0.029-0.036 0.036s-0.036 0.015-0.058 0.015c-0.029 0-0.051-0.007-0.073-0.022-0.036-0.015-0.080-0.036-0.124-0.066-0.051-0.029-0.109-0.051-0.168-0.073-0.073-0.022-0.146-0.044-0.226-0.058-0.102-0.015-0.211-0.022-0.313-0.022-0.168-0.007-0.328 0.022-0.481 0.073-0.138 0.044-0.262 0.117-0.364 0.211-0.102 0.102-0.175 0.211-0.226 0.335-0.109 0.291-0.109 0.612 0 0.903 0.051 0.124 0.138 0.24 0.248 0.335 0.102 0.095 0.226 0.168 0.357 0.219 0.16 0.044 0.328 0.066 0.495 0.051z"></path>
<path d="M45.699 20.427h1.355v0.306h-1.77v-2.695h0.423l-0.007 2.389z"></path>
<path d="M48.46 20.733h-0.43v-2.695h0.43v2.695z"></path>
<path d="M50.034 18.052c0.022 0.007 0.044 0.029 0.058 0.051l1.814 2.033c-0.007-0.036-0.007-0.066 0-0.095 0-0.036 0-0.066 0-0.087v-1.923h0.364v2.703h-0.211c-0.029 0.007-0.058 0-0.087-0.015-0.029-0.007-0.051-0.029-0.073-0.051l-1.807-2.033c0 0.036 0 0.066 0 0.095s0 0.058 0 0.080v1.923h-0.35v-2.695h0.219c0.022 0 0.051 0.007 0.073 0.015z"></path>
<path d="M55.388 18.038v0.299h-1.501v0.889h1.217v0.284h-1.217v0.925h1.501v0.299h-1.938v-2.695h1.938z"></path>
<path d="M11.044 1.37l18.788 4.611v16.144l-18.788-4.611v-16.144zM9.835 0v18.3l21.2 5.202v-18.307l-21.2-5.194z"></path>
<path d="M21.2 31.996l-21.2-5.202v-18.3l21.2 5.194v18.307z"></path>
<path d="M10.184 1.166l18.548 4.546-7.882 6.812-18.555-4.546 7.89-6.812zM9.835 0l-9.835 8.494 21.2 5.194 9.835-8.494-21.2-5.194z"></path>
<path d="M22.394 30.969l8.64-7.467-8.64-2.12v9.587z"></path>
</symbol>
<symbol id="brand" viewBox="0 0 44 32">
<path d="M3.346 26.736c0.176 0.197 0.268 0.444 0.261 0.69 0.007 0.162-0.021 0.324-0.092 0.479-0.070 0.148-0.176 0.282-0.31 0.387-0.331 0.232-0.747 0.345-1.162 0.324h-2.043v-4.367h2c0.394-0.021 0.789 0.077 1.106 0.296 0.134 0.099 0.232 0.218 0.303 0.359 0.070 0.148 0.099 0.296 0.092 0.451 0.007 0.247-0.070 0.479-0.232 0.669-0.155 0.176-0.373 0.296-0.613 0.338 0.275 0.049 0.514 0.183 0.69 0.373zM0.951 26.081h0.852c0.197 0.014 0.387-0.042 0.542-0.148 0.070-0.049 0.12-0.12 0.148-0.19 0.035-0.077 0.049-0.155 0.042-0.232 0-0.077-0.007-0.162-0.042-0.232-0.028-0.077-0.077-0.141-0.141-0.197-0.162-0.106-0.359-0.162-0.563-0.148h-0.838v1.148zM2.43 27.75c0.070-0.049 0.127-0.12 0.162-0.197s0.049-0.162 0.042-0.247c0.007-0.085-0.007-0.162-0.049-0.239-0.035-0.077-0.085-0.148-0.155-0.204-0.169-0.113-0.373-0.169-0.585-0.155h-0.894v1.197h0.909c0.204 0.007 0.409-0.042 0.571-0.155z"></path>
<path d="M7.445 28.617l-1.12-1.704h-0.416v1.704h-0.958v-4.367h1.81c0.458-0.028 0.916 0.106 1.268 0.373 0.254 0.239 0.409 0.549 0.43 0.88 0.028 0.331-0.077 0.655-0.296 0.923-0.225 0.239-0.528 0.394-0.866 0.444l1.19 1.747h-1.042zM5.909 26.314h0.782c0.549 0 0.817-0.218 0.817-0.662 0.007-0.085-0.007-0.176-0.042-0.261s-0.085-0.162-0.155-0.225c-0.176-0.134-0.394-0.197-0.62-0.176h-0.789l0.007 1.324z"></path>
<path d="M12.685 27.736h-1.916l-0.338 0.88h-1l1.754-4.318h1.085l1.747 4.318h-1.007l-0.324-0.88zM12.424 27.074l-0.697-1.838-0.697 1.838h1.395z"></path>
<path d="M19.242 28.617h-0.951l-2.134-2.972v2.972h-0.951v-4.367h0.951l2.134 2.986v-2.986h0.951v4.367z"></path>
<path d="M24.673 27.567c-0.197 0.331-0.5 0.599-0.859 0.775-0.416 0.19-0.88 0.282-1.338 0.275h-1.697v-4.367h1.697c0.458-0.007 0.923 0.085 1.338 0.268 0.359 0.169 0.662 0.437 0.859 0.761 0.197 0.359 0.296 0.747 0.296 1.148 0 0.394-0.099 0.789-0.296 1.141zM23.581 27.469c0.275-0.296 0.423-0.662 0.423-1.042s-0.148-0.754-0.423-1.042c-0.324-0.261-0.754-0.394-1.19-0.373h-0.662v2.824h0.662c0.437 0.028 0.866-0.106 1.19-0.366z"></path>
<path d="M13.277 0c0 0 12.283 4.24 12.023 10.389v10.389c0 0-12.276-4.247-12.016-10.389l-0.007-10.389z"></path>
<path d="M36.245 18.348c2.317-1.465 5.001-2.367 7.797-2.634v-3.254c-3.226 1.141-5.959 3.205-7.797 5.888z"></path>
<path d="M34.85 19.327c1.895-3.501 5.191-6.205 9.199-7.55v-9.375c0 0-17.495 6.050-17.122 14.798v14.798c0 0 0.775-0.275 2-0.782 0-0.472 0-0.944 0.056-1.43 0.366-4.057 2.472-7.825 5.867-10.459z"></path>
<path d="M33.181 24.82c0.099-1.028 0.303-2.043 0.613-3.029-2.113 2.282-3.388 5.106-3.655 8.086-0.028 0.282-0.042 0.563-0.049 0.852 1-0.437 2.155-0.986 3.367-1.627-0.31-1.409-0.401-2.845-0.275-4.282z"></path>
<path d="M33.878 24.877c-0.113 1.296-0.042 2.599 0.218 3.874 4.775-2.613 10.149-6.663 9.945-11.551v-0.423c-3.416 0.345-6.614 1.712-9.093 3.888-0.585 1.345-0.944 2.768-1.071 4.212z"></path>
</symbol>
<symbol id="foster-peters" viewBox="0 0 67 32">
<path d="M10.351 9.768v0c1.891 0 3.419 1.363 3.419 3.041v0c0 1.678-1.528 3.041-3.419 3.041v0c-1.891 0-3.419-1.363-3.419-3.041v0c0-1.678 1.528-3.041 3.419-3.041z"></path>
<path d="M35.597 8.791c-0.008-2.332-1.048-4.561-2.907-6.215-1.851-1.646-4.364-2.576-6.995-2.576v0c-2.623 0-5.136 0.93-6.995 2.576-1.851 1.654-2.899 3.883-2.907 6.215v12.864c0 0 19.803-1.961 19.803-12.856v-0.008z"></path>
<path d="M0 25.869c0 1.623 0.725 3.182 2.017 4.325 1.292 1.15 3.041 1.796 4.868 1.804 1.828-0.008 3.576-0.654 4.86-1.796 1.292-1.15 2.024-2.702 2.024-4.325v-8.949c0 0-13.769 1.363-13.769 8.941zM6.885 27.476c-0.354 0-0.709-0.095-1-0.268-0.299-0.181-0.528-0.425-0.67-0.725-0.134-0.291-0.165-0.614-0.102-0.922 0.071-0.315 0.244-0.599 0.496-0.819 0.252-0.228 0.575-0.378 0.922-0.441 0.354-0.063 0.717-0.032 1.048 0.087 0.323 0.126 0.607 0.331 0.803 0.591 0.197 0.268 0.307 0.575 0.307 0.89 0 0.213-0.047 0.425-0.134 0.622-0.095 0.189-0.228 0.37-0.394 0.52s-0.362 0.268-0.583 0.347c-0.221 0.079-0.457 0.126-0.693 0.126v-0.008z"></path>
<path d="M23.955 27.232q0.181-0.37 0.181-0.866v-0.15q0-0.496-0.181-0.874-0.134-0.284-0.354-0.473-0.071-0.055-0.15-0.11-0.071-0.039-0.142-0.071-0.276-0.126-0.607-0.126t-0.607 0.126q-0.071 0.032-0.142 0.071-0.079 0.055-0.15 0.11-0.221 0.189-0.354 0.473-0.181 0.378-0.181 0.874v0.165q0.008 0.48 0.189 0.859 0.126 0.268 0.339 0.449 0.079 0.071 0.165 0.126 0.071 0.039 0.15 0.079 0.276 0.118 0.599 0.118 0.339 0 0.614-0.134 0.071-0.032 0.134-0.071 0.087-0.055 0.173-0.126 0.197-0.181 0.323-0.449zM26.318 26.869q0.063 0.087 0.063 0.213 0 0.102-0.047 0.181-0.032 0.055-0.095 0.102-0.134 0.102-0.386 0.102-0.386 0-0.551-0.197-0.11-0.134-0.11-0.362h-0.693q0 0.244 0.095 0.441 0.032 0.071 0.071 0.134 0 0 0.008 0.008 0.165 0.236 0.48 0.378t0.701 0.142q0.559 0 0.89-0.244 0.142-0.11 0.221-0.252 0.11-0.189 0.11-0.433 0-0.221-0.087-0.402-0.063-0.142-0.181-0.252-0.276-0.268-0.866-0.441-0.315-0.102-0.48-0.213-0.118-0.079-0.15-0.181-0.016-0.047-0.016-0.095 0-0.087 0.032-0.15 0.039-0.079 0.11-0.134 0.142-0.102 0.394-0.102 0.26 0 0.41 0.126 0.032 0.032 0.063 0.071 0.079 0.118 0.079 0.291h0.693q0-0.213-0.071-0.386-0.039-0.079-0.087-0.158-0.032-0.047-0.071-0.095-0.142-0.173-0.362-0.276-0.284-0.126-0.646-0.126-0.354 0-0.646 0.118-0.284 0.118-0.441 0.331-0.063 0.087-0.095 0.189-0.055 0.142-0.055 0.299t0.047 0.299q0.126 0.315 0.528 0.536 0.205 0.11 0.567 0.228t0.496 0.221q0.047 0.039 0.079 0.087zM53.353 26.869q0.063 0.087 0.063 0.213 0 0.102-0.047 0.181-0.032 0.055-0.095 0.102-0.142 0.102-0.386 0.102-0.386 0-0.551-0.197-0.11-0.134-0.11-0.362h-0.693q0 0.244 0.087 0.441 0.032 0.071 0.079 0.134 0 0 0.008 0.008 0.165 0.236 0.473 0.378 0.323 0.142 0.709 0.142 0.559 0 0.89-0.244 0.142-0.11 0.221-0.252 0.11-0.189 0.11-0.433 0-0.221-0.087-0.402-0.071-0.142-0.181-0.252-0.276-0.268-0.867-0.441-0.315-0.102-0.48-0.213-0.118-0.079-0.158-0.181-0.008-0.047-0.008-0.095 0-0.087 0.032-0.15 0.032-0.079 0.11-0.134 0.134-0.102 0.394-0.102t0.402 0.126q0.039 0.032 0.071 0.071 0.079 0.118 0.079 0.291h0.693q0-0.213-0.079-0.386-0.032-0.079-0.079-0.158-0.032-0.047-0.071-0.095-0.142-0.173-0.362-0.276-0.284-0.126-0.646-0.126-0.354 0-0.646 0.118-0.284 0.118-0.441 0.331-0.063 0.087-0.095 0.189-0.055 0.142-0.055 0.299t0.047 0.299q0.126 0.315 0.52 0.536 0.213 0.11 0.575 0.228 0.354 0.118 0.496 0.221 0.047 0.039 0.079 0.087zM19.48 26.594h1.323v-0.559h-1.323v-0.866h1.489v-0.559h-2.182v3.356h0.693v-1.371zM29.044 25.168h1.032v-0.559h-2.741v0.559h1.016v2.796h0.693v-2.796zM31.163 26.507h1.323v-0.536h-1.323v-0.803h1.552v-0.559h-2.245v3.356h2.253v-0.551h-1.56v-0.906zM33.817 26.735h0.551l0.63 1.229h0.74v-0.032l-0.725-1.371q0.299-0.134 0.449-0.37 0.15-0.228 0.15-0.567t-0.158-0.575q-0.063-0.095-0.165-0.181-0.323-0.26-0.914-0.26h-1.252v3.356h0.693v-1.229zM38.008 27.964v-1.182h0.607q0.599 0 0.937-0.284 0.118-0.102 0.197-0.228 0.142-0.228 0.142-0.551 0-0.26-0.095-0.473-0.024-0.055-0.055-0.11-0.047-0.071-0.11-0.142-0.134-0.15-0.339-0.252-0.284-0.134-0.662-0.134h-1.316v3.356h0.693zM41.056 26.507h1.331v-0.536h-1.331v-0.803h1.56v-0.559h-2.253v3.356h2.253v-0.551h-1.56v-0.906zM44.57 25.168h1.032v-0.559h-2.741v0.559h1.016v2.796h0.693v-2.796zM46.689 26.507h1.331v-0.536h-1.331v-0.803h1.552v-0.559h-2.245v3.356h2.253v-0.551h-1.56v-0.906zM49.343 26.735h0.551l0.63 1.229h0.748v-0.032l-0.733-1.371q0.307-0.134 0.457-0.37 0.15-0.228 0.15-0.567t-0.158-0.575q-0.071-0.095-0.165-0.181-0.323-0.26-0.922-0.26h-1.245v3.356h0.685v-1.229zM23.246 25.404q0.189 0.276 0.189 0.803v0.165q-0.008 0.528-0.189 0.796-0.087 0.126-0.197 0.189-0.15 0.087-0.339 0.087-0.197 0-0.339-0.087-0.126-0.071-0.205-0.197-0.189-0.284-0.189-0.796v-0.165q0-0.528 0.189-0.796 0.079-0.118 0.197-0.189 0.142-0.087 0.339-0.087t0.339 0.087q0.118 0.071 0.205 0.189zM34.376 26.176h-0.559v-1.008h0.559q0.276 0 0.41 0.134 0.024 0.024 0.039 0.047 0.095 0.126 0.095 0.331 0 0.173-0.079 0.291-0.032 0.039-0.063 0.071 0 0-0.008 0.008-0.142 0.126-0.394 0.126zM38.63 26.223h-0.622v-1.056h0.638q0.205 0 0.339 0.102 0.032 0.024 0.063 0.055t0.055 0.071q0.087 0.134 0.087 0.323 0 0.197-0.087 0.315-0.024 0.032-0.055 0.055-0.142 0.134-0.417 0.134zM49.903 26.176h-0.559v-1.008h0.559q0.276 0 0.417 0.134 0.016 0.024 0.032 0.047 0.102 0.126 0.102 0.331 0 0.173-0.087 0.291-0.024 0.039-0.055 0.071-0.008 0-0.008 0.008-0.142 0.126-0.402 0.126z"></path>
</symbol>
<symbol id="company" viewBox="0 0 34 32">
<path d="M5.222 31.393c0.016 0 0.023 0 0.039 0.008 0.008 0 0.016 0.008 0.031 0.016l0.163 0.163c-0.132 0.132-0.287 0.233-0.474 0.303-0.21 0.078-0.443 0.117-0.676 0.117-0.218 0-0.435-0.031-0.637-0.109-0.179-0.062-0.342-0.163-0.474-0.288-0.14-0.132-0.241-0.288-0.311-0.451-0.078-0.186-0.109-0.381-0.109-0.575s0.039-0.396 0.117-0.575c0.070-0.171 0.187-0.326 0.326-0.451 0.148-0.132 0.319-0.225 0.513-0.295 0.202-0.070 0.427-0.109 0.653-0.101 0.21-0.008 0.412 0.023 0.606 0.093 0.171 0.062 0.326 0.148 0.458 0.256l-0.148 0.179c-0.008 0.008-0.016 0.016-0.031 0.031-0.016 0.008-0.039 0.008-0.062 0.008-0.016 0-0.039-0.008-0.054-0.016l-0.078-0.047-0.109-0.062c-0.047-0.016-0.093-0.039-0.14-0.054-0.062-0.023-0.132-0.031-0.194-0.047-0.085-0.016-0.171-0.016-0.249-0.016-0.163-0.008-0.326 0.023-0.474 0.078-0.14 0.047-0.264 0.117-0.365 0.218-0.109 0.101-0.187 0.218-0.241 0.342-0.062 0.148-0.093 0.303-0.085 0.458-0.008 0.155 0.023 0.311 0.085 0.466 0.047 0.124 0.132 0.241 0.233 0.342 0.101 0.093 0.218 0.163 0.35 0.21 0.14 0.054 0.287 0.078 0.443 0.078 0.085 0 0.171-0.008 0.256-0.016 0.14-0.016 0.272-0.054 0.389-0.124 0.062-0.031 0.117-0.070 0.171-0.117 0.023-0.016 0.047-0.023 0.078-0.023z"></path>
<path d="M10.117 30.577c0 0.194-0.039 0.389-0.117 0.575-0.070 0.163-0.179 0.311-0.319 0.443-0.14 0.124-0.311 0.225-0.497 0.288-0.42 0.14-0.878 0.14-1.29 0-0.186-0.062-0.357-0.163-0.497-0.288-0.14-0.132-0.249-0.288-0.326-0.451-0.148-0.373-0.148-0.777 0-1.15 0.078-0.163 0.186-0.319 0.326-0.451 0.14-0.124 0.311-0.218 0.497-0.28 0.412-0.14 0.87-0.14 1.29 0 0.187 0.070 0.357 0.163 0.497 0.295 0.14 0.124 0.249 0.28 0.319 0.443 0.078 0.179 0.117 0.381 0.117 0.575zM9.674 30.577c0-0.155-0.023-0.311-0.085-0.458-0.047-0.132-0.124-0.249-0.225-0.35-0.101-0.093-0.218-0.163-0.357-0.218-0.303-0.101-0.637-0.101-0.932 0-0.14 0.054-0.264 0.124-0.365 0.218-0.101 0.101-0.179 0.218-0.225 0.35-0.109 0.295-0.109 0.622 0 0.917 0.047 0.124 0.124 0.249 0.225 0.342s0.225 0.171 0.365 0.218c0.295 0.101 0.629 0.101 0.932 0 0.14-0.047 0.256-0.124 0.357-0.218 0.101-0.101 0.179-0.218 0.225-0.342 0.062-0.148 0.085-0.303 0.085-0.458z"></path>
<path d="M13.458 31.059l0.039 0.101c0.023-0.031 0.031-0.070 0.054-0.101 0.016-0.031 0.031-0.070 0.054-0.101l1.080-1.709c0.023-0.031 0.039-0.047 0.062-0.054 0.031-0.008 0.062-0.008 0.085-0.008h0.326v2.782h-0.381v-2.044c0-0.031 0-0.062 0-0.093s0-0.062 0-0.093l-1.088 1.733c-0.016 0.031-0.039 0.047-0.070 0.062-0.023 0.016-0.054 0.023-0.093 0.023h-0.054c-0.039 0-0.070-0.008-0.093-0.023-0.031-0.016-0.054-0.031-0.070-0.062l-1.119-1.741c0 0.031 0 0.062 0 0.101 0 0.031 0 0.062 0 0.085v2.044h-0.365v-2.774h0.319c0.031 0 0.062 0 0.093 0.008 0.023 0.008 0.047 0.031 0.054 0.054l1.111 1.709c0.016 0.031 0.039 0.070 0.054 0.101z"></path>
<path d="M17.53 30.919v1.041h-0.427v-2.774h0.948c0.179-0.008 0.357 0.016 0.528 0.062 0.14 0.031 0.264 0.093 0.373 0.171 0.093 0.078 0.163 0.171 0.21 0.272 0.054 0.117 0.078 0.233 0.070 0.357 0.008 0.117-0.023 0.241-0.078 0.35-0.047 0.109-0.124 0.202-0.225 0.28-0.109 0.085-0.241 0.148-0.373 0.186-0.171 0.047-0.342 0.070-0.513 0.062l-0.513-0.008zM17.53 30.623h0.513c0.109 0 0.225-0.016 0.326-0.047 0.085-0.023 0.171-0.062 0.241-0.117 0.062-0.054 0.109-0.117 0.14-0.186 0.039-0.070 0.054-0.148 0.054-0.233 0-0.078-0.008-0.155-0.047-0.225-0.031-0.070-0.078-0.132-0.148-0.186-0.163-0.109-0.365-0.163-0.567-0.155h-0.513v1.15z"></path>
<path d="M23.226 31.968h-0.334c-0.039 0-0.070-0.008-0.093-0.031-0.023-0.016-0.047-0.039-0.054-0.062l-0.288-0.668h-1.453l-0.295 0.668c-0.008 0.023-0.031 0.047-0.054 0.062-0.023 0.023-0.062 0.031-0.093 0.031h-0.334l1.267-2.782h0.443l1.29 2.782zM21.128 30.934h1.197l-0.505-1.134c-0.039-0.085-0.070-0.171-0.093-0.256l-0.054 0.14c-0.016 0.047-0.031 0.085-0.047 0.117l-0.497 1.134z"></path>
<path d="M25.052 29.194c0.031 0.016 0.047 0.031 0.070 0.054l1.849 2.098c0-0.039 0-0.070 0-0.101s0-0.062 0-0.093v-1.966h0.381v2.782h-0.21c-0.031 0-0.062-0.008-0.093-0.016-0.023-0.016-0.047-0.031-0.062-0.054l-1.857-2.098c0.008 0.039 0.008 0.070 0 0.101 0 0.031 0 0.054 0 0.085v1.981h-0.373v-2.782h0.225c0.023 0 0.047 0 0.070 0.008z"></path>
<path d="M30.476 30.857v1.111h-0.427v-1.111l-1.173-1.671h0.381c0.039 0 0.070 0.008 0.093 0.023s0.039 0.039 0.054 0.062l0.738 1.080c0.031 0.047 0.054 0.085 0.078 0.132 0.016 0.039 0.031 0.078 0.047 0.117l0.054-0.124c0.023-0.039 0.047-0.085 0.078-0.124l0.723-1.088c0.016-0.023 0.031-0.039 0.054-0.062 0.023-0.016 0.054-0.023 0.093-0.023h0.381l-1.173 1.678z"></path>
<path d="M13.249 24.516c0.179 0.023 0.365 0.039 0.559 0.054 2.86-1.111 5.276-2.929 6.947-5.23 1.678-2.3 2.541-4.973 2.471-7.693l-3.147-2.743c0.637 2.898 0.342 5.89-0.87 8.649-1.204 2.759-3.271 5.167-5.96 6.962z"></path>
<path d="M12.122 24.392l0.085 0.016c2.875-1.795 5.074-4.289 6.294-7.172 1.228-2.883 1.43-6.022 0.583-9.006l-4.484-3.901c1.811 3.209 2.541 6.791 2.106 10.342s-2.028 6.924-4.585 9.721z"></path>
<path d="M27.337 14.857c-0.762 2.992-2.611 5.688-5.276 7.685-0.777 0.591-1.616 1.111-2.51 1.57 2.168-0.559 4.165-1.539 5.836-2.867 1.663-1.329 2.953-2.976 3.776-4.81l-1.826-1.577z"></path>
<path d="M26.622 14.422l-2.588-2.253c-0.047 2.564-0.886 5.074-2.432 7.265-1.546 2.183-3.73 3.979-6.341 5.183h0.016c0.575 0 1.158-0.031 1.733-0.093 2.44-0.863 4.592-2.238 6.271-4.002s2.828-3.862 3.341-6.1z"></path>
<path d="M12.495 2.689l-3.093-2.689c-2.759 0.925-5.136 2.557-6.815 4.678s-2.58 4.631-2.588 7.203v0c0.008 2.844 1.111 5.603 3.124 7.84 2.020 2.246 4.841 3.831 8.019 4.522 2.836-2.999 4.491-6.714 4.74-10.591 0.241-3.87-0.948-7.716-3.388-10.964z"></path>
<path d="M33.77 14.002c-0.016-3.372-1.562-6.605-4.313-8.99-2.743-2.386-6.465-3.73-10.35-3.745-1.795 0-3.574 0.288-5.245 0.855l18.929 16.442c0.645-1.453 0.979-2.999 0.979-4.561z"></path>
</symbol>
<symbol id="company-tagline-here" viewBox="0 0 25 32">
<path d="M10.448 1.806h0.084c0.156 0 0.324 0.016 0.49 0.030 0.734 0.052 1.463 0.162 2.179 0.329v-1.762c-0.738-0.185-1.491-0.305-2.25-0.358-0.288-0.022-0.595-0.036-0.909-0.044h-0.263c-1.523 0.006-3.040 0.201-4.515 0.582-1.68 0.419-3.293 1.075-4.79 1.948v17.475c1.442-0.783 2.976-1.381 4.566-1.779 1.256-0.32 2.539-0.517 3.833-0.588h0.051c0.216-0.011 0.433-0.017 0.655-0.019v-1.79c-1.681 0.022-3.353 0.244-4.982 0.662-0.602 0.157-1.185 0.326-1.731 0.513l-0.623 0.211v-13.625l0.266-0.128c2.032-0.963 4.229-1.524 6.472-1.651 0.019-0.001 0.037-0.001 0.056 0 0.248-0.013 0.497-0.019 0.741-0.019h0.28c0.129 0.003 0.258 0.006 0.388 0.014zM13.633 3.607c0.391 0.030 0.795 0.044 1.205 0.044 1.601-0.006 3.195-0.21 4.747-0.609 1.59-0.4 3.123-0.998 4.564-1.781v17.164c-1.498 0.873-3.111 1.529-4.792 1.948-1.475 0.379-2.992 0.574-4.515 0.581-1.154 0.009-2.304-0.126-3.425-0.404v-17.275c0.265 0.061 0.537 0.117 0.814 0.164 0.455 0.077 0.934 0.133 1.401 0.167zM22.368 3.74l-0.623 0.21c-0.573 0.192-1.15 0.365-1.731 0.518-1.691 0.434-3.428 0.657-5.173 0.663-0.406 0-0.78-0.011-1.141-0.034l-0.497-0.033v14.017l0.427 0.038c0.395 0.034 0.803 0.052 1.214 0.052 1.375-0.006 2.743-0.183 4.074-0.527 1.096-0.275 2.163-0.658 3.184-1.144l0.266-0.128v-13.63z"></path>
<path d="M1.68 25.976c-0.086-0.092-0.197-0.166-0.314-0.215-0.123-0.049-0.246-0.074-0.375-0.068-0.142 0-0.277 0.025-0.4 0.074-0.117 0.049-0.228 0.117-0.314 0.209-0.086 0.086-0.154 0.197-0.203 0.314-0.049 0.123-0.068 0.252-0.068 0.382v2.338c-0.006 0.166 0.025 0.326 0.092 0.48 0.055 0.117 0.135 0.222 0.234 0.308 0.092 0.080 0.203 0.135 0.32 0.166 0.111 0.037 0.228 0.049 0.345 0.049 0.135 0.006 0.258-0.025 0.382-0.080 0.117-0.049 0.222-0.123 0.308-0.215s0.16-0.197 0.203-0.314c0.049-0.117 0.080-0.246 0.080-0.369v-0.265h-0.615v0.209c0.006 0.074-0.006 0.142-0.031 0.209-0.025 0.049-0.055 0.092-0.092 0.129-0.037 0.031-0.080 0.055-0.129 0.068-0.037 0.012-0.080 0.025-0.123 0.025-0.055 0.006-0.111-0.006-0.16-0.025-0.055-0.025-0.098-0.055-0.129-0.105-0.055-0.092-0.086-0.203-0.080-0.314v-2.172c-0.006-0.123 0.018-0.24 0.074-0.351 0.031-0.049 0.074-0.086 0.129-0.111s0.111-0.037 0.172-0.031c0.049 0 0.105 0.012 0.148 0.031 0.049 0.025 0.092 0.062 0.123 0.105 0.068 0.086 0.105 0.197 0.098 0.308v0.203h0.603v-0.234c0.006-0.142-0.018-0.283-0.074-0.412-0.043-0.123-0.111-0.234-0.203-0.326z"></path>
<path d="M5.305 25.945c-0.191-0.16-0.437-0.252-0.689-0.252-0.129 0-0.252 0.018-0.369 0.062s-0.228 0.111-0.32 0.191c-0.098 0.092-0.185 0.203-0.234 0.332-0.062 0.142-0.092 0.295-0.092 0.449v2.24c-0.006 0.16 0.025 0.314 0.092 0.455 0.055 0.123 0.135 0.228 0.234 0.314 0.092 0.086 0.203 0.154 0.32 0.197s0.24 0.068 0.369 0.068c0.123 0 0.246-0.025 0.363-0.068s0.234-0.111 0.326-0.197c0.098-0.086 0.178-0.191 0.234-0.314 0.062-0.142 0.092-0.295 0.086-0.455v-2.24c0.006-0.154-0.025-0.308-0.086-0.449-0.055-0.123-0.135-0.24-0.234-0.332zM5.022 28.967c0.006 0.062 0 0.117-0.025 0.178-0.018 0.055-0.055 0.105-0.098 0.148-0.080 0.068-0.178 0.105-0.283 0.105s-0.209-0.037-0.289-0.105c-0.043-0.043-0.074-0.092-0.098-0.148-0.018-0.062-0.031-0.117-0.025-0.178v-2.24c-0.006-0.062 0.006-0.117 0.025-0.178 0.025-0.055 0.055-0.105 0.098-0.148 0.080-0.068 0.185-0.105 0.289-0.105s0.203 0.037 0.283 0.105c0.043 0.043 0.080 0.092 0.098 0.148 0.025 0.062 0.031 0.117 0.025 0.178v2.24z"></path>
<path d="M10.068 29.963v-4.234h-0.585l-0.769 2.24h-0.012l-0.775-2.24h-0.585v4.234h0.609v-2.579h0.006l0.597 1.828h0.302l0.597-1.828h0.012v2.578h0.603z"></path>
<path d="M13.508 26.025c-0.092-0.105-0.209-0.185-0.338-0.234-0.142-0.043-0.289-0.068-0.443-0.062h-0.898v4.234h0.603v-1.655h0.314c0.185 0.012 0.375-0.031 0.542-0.111 0.142-0.080 0.252-0.191 0.332-0.326 0.074-0.111 0.117-0.24 0.142-0.369 0.025-0.16 0.031-0.32 0.031-0.48 0.006-0.203-0.012-0.412-0.062-0.609-0.037-0.148-0.117-0.277-0.222-0.388zM13.2 27.317c-0.006 0.074-0.025 0.154-0.055 0.222-0.037 0.062-0.092 0.117-0.16 0.148-0.086 0.037-0.185 0.055-0.283 0.055h-0.277v-1.446h0.314c0.092 0 0.185 0.018 0.271 0.055 0.062 0.037 0.111 0.092 0.142 0.154 0.031 0.080 0.049 0.16 0.055 0.24 0 0.086 0 0.185 0 0.283s0.006 0.197 0 0.289h-0.006z"></path>
<path d="M16.369 25.73h-0.492l-0.935 4.234h0.603l0.178-0.911h0.825l0.178 0.911h0.603l-0.96-4.234zM15.816 28.48l0.295-1.538h0.012l0.295 1.538h-0.603z"></path>
<path d="M20.271 28.283h-0.006l-0.917-2.554h-0.578v4.234h0.603v-2.548h0.012l0.923 2.548h0.572v-4.234h-0.609v2.554z"></path>
<path d="M23.963 25.73l-0.486 1.68h-0.012l-0.486-1.68h-0.64l0.831 2.443v1.791h0.603v-1.791l0.831-2.443h-0.64z"></path>
<path d="M0 31.163h0.289v0.818h0.197v-0.818h0.289v-0.166h-0.775v0.166z"></path>
<path d="M2.443 30.997l-0.382 0.985h0.209l0.080-0.228h0.394l0.086 0.228h0.215l-0.394-0.985h-0.209zM2.412 31.588l0.135-0.363 0.135 0.363h-0.271z"></path>
<path d="M4.862 31.619h0.228v0.123c-0.068 0.055-0.148 0.086-0.234 0.086-0.037 0-0.080-0.006-0.117-0.025-0.031-0.012-0.068-0.037-0.092-0.068-0.049-0.080-0.074-0.166-0.074-0.258 0-0.222 0.098-0.332 0.289-0.332 0.049 0 0.098 0.012 0.135 0.037 0.043 0.031 0.074 0.074 0.086 0.123l0.191-0.037c-0.037-0.197-0.178-0.289-0.412-0.289-0.129-0.006-0.252 0.043-0.345 0.123-0.049 0.049-0.092 0.111-0.117 0.178-0.025 0.062-0.031 0.135-0.025 0.203-0.006 0.135 0.037 0.265 0.123 0.369 0.049 0.049 0.105 0.086 0.172 0.111 0.062 0.025 0.135 0.037 0.203 0.031 0.154 0.006 0.302-0.049 0.418-0.154v-0.388h-0.431v0.166z"></path>
<path d="M7.335 30.997h-0.203v0.985h0.689v-0.166h-0.486v-0.818z"></path>
<path d="M9.225 30.997h0.197v0.985h-0.197v-0.985z"></path>
<path d="M11.465 31.656l-0.4-0.658h-0.197v0.985h0.185v-0.646l0.4 0.646h0.197v-0.985h-0.185v0.658z"></path>
<path d="M13.311 31.545h0.492v-0.166h-0.492v-0.215h0.529v-0.166h-0.726v0.985h0.745v-0.166h-0.548v-0.271z"></path>
<path d="M17.791 31.385h-0.388v-0.388h-0.197v0.985h0.197v-0.431h0.388v0.431h0.197v-0.985h-0.197v0.388z"></path>
<path d="M19.649 31.545h0.486v-0.166h-0.486v-0.215h0.529v-0.166h-0.732v0.985h0.751v-0.166h-0.548v-0.271z"></path>
<path d="M22.166 31.545c0.172-0.025 0.258-0.117 0.258-0.271 0.006-0.043 0-0.086-0.018-0.123s-0.043-0.074-0.080-0.098c-0.086-0.043-0.191-0.062-0.289-0.055h-0.412v0.985h0.197v-0.412h0.037c0.043-0.006 0.086 0.006 0.123 0.018 0.031 0.018 0.055 0.043 0.068 0.074l0.215 0.314h0.24l-0.123-0.191c-0.049-0.098-0.129-0.178-0.215-0.24zM21.963 31.41h-0.142v-0.246h0.154c0.068-0.006 0.135 0 0.203 0.025 0.012 0.012 0.025 0.025 0.031 0.043s0.012 0.037 0.012 0.055c-0.006 0.025-0.006 0.043-0.018 0.055-0.006 0.018-0.018 0.031-0.037 0.043-0.062 0.025-0.135 0.031-0.203 0.025z"></path>
<path d="M24.062 31.545h0.492v-0.166h-0.492v-0.215h0.529v-0.166h-0.726v0.985h0.751v-0.166h-0.554v-0.271z"></path>
</symbol>
<symbol id="ya-co" viewBox="0 0 28 32">
<path d="M4.111 0l4.802 4.546-8.913-0.005v22.054h23.296v-8.432l4.796 4.541v-22.703h-23.982zM23.086 4.74v12.889l-13.615-12.889h13.615zM18.859 23.369h-15.172v-14.833h1.072v13.828h14.1v1.004zM10.874 30.8c-0.061 0.094-0.092 0.197-0.092 0.309 0 0.205 0.072 0.372 0.216 0.5 0.145 0.127 0.338 0.191 0.579 0.191q0.271 0 0.485-0.11 0.072-0.037 0.137-0.086l0.137 0.162h0.472l-0.358-0.423q0.211-0.288 0.211-0.738h-0.353c0 0.164-0.034 0.313-0.102 0.447l-0.47-0.555 0.166-0.12c0.117-0.085 0.201-0.17 0.253-0.254 0.051-0.086 0.077-0.18 0.077-0.281q0-0.115-0.043-0.212t-0.128-0.175c-0.113-0.105-0.258-0.157-0.435-0.157-0.196 0-0.352 0.056-0.468 0.167-0.116 0.11-0.174 0.261-0.174 0.452 0 0.078 0.018 0.159 0.055 0.243 0.038 0.084 0.104 0.185 0.199 0.304-0.181 0.129-0.302 0.242-0.363 0.336zM15.501 31.583c0.167-0.146 0.263-0.349 0.288-0.609h-0.422c-0.022 0.174-0.075 0.298-0.159 0.373s-0.209 0.112-0.375 0.112c-0.182 0-0.32-0.069-0.415-0.207q-0.141-0.207-0.141-0.602v-0.216c0.002-0.26 0.052-0.457 0.151-0.59 0.099-0.135 0.241-0.202 0.425-0.202 0.158 0 0.278 0.039 0.36 0.117 0.083 0.077 0.134 0.203 0.154 0.378h0.422c-0.027-0.267-0.122-0.473-0.286-0.619s-0.38-0.219-0.649-0.219c-0.2 0-0.376 0.047-0.529 0.142-0.152 0.095-0.268 0.23-0.35 0.405s-0.122 0.377-0.122 0.607v0.228c0.003 0.224 0.045 0.421 0.125 0.59s0.194 0.301 0.341 0.393c0.148 0.091 0.319 0.137 0.514 0.137 0.278 0 0.5-0.073 0.667-0.217zM17.988 31.242c0.083-0.181 0.124-0.39 0.124-0.629v-0.135c-0.001-0.238-0.044-0.446-0.127-0.624q-0.097-0.208-0.256-0.34-0.047-0.039-0.1-0.072c-0.153-0.096-0.328-0.144-0.527-0.144s-0.375 0.049-0.529 0.146q-0.041 0.026-0.079 0.056-0.173 0.137-0.277 0.361c-0.084 0.182-0.125 0.391-0.125 0.629v0.137c0.001 0.233 0.043 0.439 0.127 0.617 0.085 0.178 0.204 0.316 0.358 0.413 0.155 0.096 0.331 0.144 0.529 0.144 0.2 0 0.376-0.048 0.529-0.144 0.154-0.097 0.272-0.235 0.355-0.415zM7.269 29.332l-0.56 1.154-0.56-1.154h-0.47l0.818 1.539v0.897h0.425v-0.897l0.816-1.539h-0.468zM7.973 31.767l0.197-0.567h0.944l0.199 0.567h0.442l-0.922-2.436h-0.38l-0.92 2.436h0.44zM11.536 30.26c-0.115-0.142-0.172-0.259-0.172-0.353 0-0.081 0.023-0.149 0.070-0.202s0.11-0.080 0.189-0.080c0.074 0 0.134 0.023 0.182 0.069 0.048 0.045 0.072 0.099 0.072 0.162 0 0.096-0.035 0.175-0.104 0.236l-0.052 0.042-0.186 0.127zM17.535 29.865c0.103 0.144 0.154 0.351 0.154 0.621v0.127c0 0.274-0.051 0.483-0.152 0.626-0.1 0.143-0.244 0.214-0.432 0.214-0.185 0-0.33-0.073-0.435-0.219-0.104-0.146-0.156-0.353-0.156-0.621v-0.141c0.002-0.262 0.055-0.464 0.157-0.607 0.104-0.144 0.247-0.216 0.43-0.216 0.187 0 0.332 0.072 0.433 0.216zM8.642 29.848l0.353 1.010h-0.706l0.353-1.010zM11.973 31.339c-0.119 0.091-0.248 0.137-0.385 0.137q-0.148 0-0.248-0.070-0.023-0.016-0.043-0.036c-0.072-0.070-0.109-0.162-0.109-0.274 0-0.13 0.067-0.247 0.201-0.348l0.052-0.037 0.532 0.627z"></path>
</symbol>
<symbol id="linkedin" viewBox="0 0 32 32">
<path d="M31.984 32v-0.016h0.016v-11.728c0-5.744-1.248-10.16-7.952-10.16-3.232 0-5.392 1.76-6.272 3.44h-0.096v-2.912h-6.368v21.36h6.624v-10.576c0-2.784 0.528-5.472 3.984-5.472 3.392 0 3.44 3.184 3.44 5.648v10.416h6.624z"></path>
<path d="M0.528 10.624h6.624v21.36h-6.624v-21.36z"></path>
<path d="M3.84 0c-2.128 0-3.84 1.712-3.84 3.84 0 2.112 1.712 3.872 3.84 3.872 2.112 0 3.84-1.76 3.84-3.872 0-2.128-1.728-3.84-3.84-3.84v0z"></path>
</symbol>
<symbol id="facebook" viewBox="0 0 32 32">
<path d="M21.328 5.312h2.912v-5.088c-0.496-0.080-2.24-0.224-4.256-0.224-4.208 0-7.088 2.64-7.088 7.504v4.496h-4.656v5.68h4.656v14.32h5.696v-14.32h4.448l0.72-5.68h-5.168v-3.92c0-1.648 0.432-2.768 2.736-2.768z"></path>
</symbol>
<symbol id="twitter" viewBox="0 0 39 32">
<path d="M39.385 3.781c-1.477 0.65-3.033 1.063-4.667 1.28 1.674-1.004 2.954-2.58 3.564-4.47-1.575 0.926-3.289 1.595-5.12 1.95-1.497-1.575-3.604-2.54-5.908-2.54-4.47 0-8.074 3.623-8.074 8.074 0 0.63 0.059 1.241 0.197 1.831-6.715-0.315-12.662-3.545-16.64-8.448-0.709 1.221-1.103 2.599-1.103 4.096 0 2.777 1.438 5.258 3.584 6.695-1.3-0.020-2.58-0.394-3.643-0.985 0 0.020 0 0.059 0 0.079 0 3.938 2.796 7.188 6.459 7.936-0.65 0.177-1.378 0.276-2.107 0.276-0.532 0-1.044-0.039-1.536-0.138 1.044 3.19 4.017 5.534 7.542 5.612-2.737 2.146-6.242 3.446-10.004 3.446-0.67 0-1.3-0.020-1.93-0.098 3.564 2.304 7.798 3.623 12.386 3.623 14.848 0 22.961-12.308 22.961-22.981 0-0.354 0-0.709-0.020-1.044 1.595-1.142 2.954-2.56 4.057-4.194z"></path>
</symbol>
<symbol id="instagram" viewBox="0 0 32 32">
<path d="M31.968 9.408c-0.080-1.712-0.352-2.88-0.752-3.888-0.4-1.072-1.024-2.032-1.856-2.848-0.8-0.8-1.76-1.44-2.832-1.84-1.008-0.384-2.176-0.672-3.872-0.736-1.712-0.080-2.256-0.096-6.608-0.096-4.336 0-4.88 0.016-6.592 0.080-1.696 0.080-2.864 0.352-3.888 0.752-1.072 0.4-2.032 1.024-2.832 1.84-0.816 0.816-1.44 1.776-1.84 2.832-0.4 1.024-0.672 2.192-0.752 3.888-0.080 1.712-0.096 2.256-0.096 6.608 0 4.336 0.016 4.88 0.096 6.592 0.080 1.696 0.352 2.864 0.736 3.888 0.416 1.072 1.040 2.032 1.856 2.832 0.8 0.816 1.776 1.44 2.832 1.84 1.024 0.4 2.176 0.672 3.888 0.752 1.696 0.064 2.24 0.080 6.592 0.080 4.336 0 4.88-0.016 6.592-0.080 1.696-0.080 2.864-0.352 3.888-0.752 2.144-0.832 3.84-2.528 4.672-4.672 0.4-1.024 0.672-2.192 0.752-3.888 0.064-1.712 0.096-2.256 0.096-6.592 0-4.352-0.016-4.896-0.080-6.592zM29.072 22.464c-0.064 1.568-0.32 2.4-0.544 2.976-0.544 1.392-1.648 2.496-3.040 3.040-0.56 0.208-1.408 0.48-2.96 0.544-1.696 0.080-2.208 0.096-6.464 0.096-4.272 0-4.784-0.016-6.464-0.096-1.568-0.064-2.416-0.336-2.976-0.544-0.688-0.256-1.328-0.672-1.84-1.2-0.528-0.528-0.928-1.152-1.184-1.84-0.224-0.56-0.496-1.408-0.56-2.976-0.080-1.68-0.096-2.192-0.096-6.464 0-4.256 0.016-4.768 0.096-6.464 0.064-1.552 0.336-2.4 0.56-2.96 0.256-0.688 0.656-1.328 1.2-1.84 0.512-0.528 1.136-0.944 1.824-1.2 0.576-0.208 1.424-0.48 2.976-0.544 1.68-0.080 2.192-0.096 6.464-0.096s4.784 0.016 6.464 0.096c1.568 0.064 2.4 0.336 2.976 0.544 0.688 0.256 1.312 0.672 1.824 1.2 0.544 0.512 0.944 1.152 1.2 1.84 0.224 0.56 0.48 1.408 0.544 2.96 0.080 1.696 0.096 2.208 0.096 6.464 0 4.272-0.016 4.784-0.096 6.464z"></path>
<path d="M16.048 7.776c-4.528 0-8.224 3.68-8.224 8.224 0 4.528 3.696 8.208 8.224 8.208 4.544 0 8.224-3.68 8.224-8.208 0-4.544-3.68-8.224-8.224-8.224zM16.048 21.328c-2.944 0-5.328-2.384-5.328-5.328s2.384-5.344 5.328-5.344c2.944 0 5.328 2.4 5.328 5.344s-2.384 5.328-5.328 5.328z"></path>
<path d="M26.512 7.456c0 1.056-0.848 1.92-1.92 1.92-1.056 0-1.92-0.864-1.92-1.92 0-1.072 0.864-1.92 1.92-1.92 1.072 0 1.92 0.848 1.92 1.92z"></path>
</symbol>
</defs>
</svg>
